<?xml version="1.0" encoding="UTF-8"?>
<svg version="1.1" xmlns="http://www.w3.org/2000/svg" width="612" height="408">
<path d="M0 0 C0 12.87 0 25.74 0 39 C-7.61140447 42.80570224 -15.18467271 46.51825802 -22.9375 50 C-24.85557577 50.86695076 -26.77354501 51.73413725 -28.69140625 52.6015625 C-29.60293457 53.0130957 -30.51446289 53.42462891 -31.45361328 53.84863281 C-41.54548024 58.40452627 -41.54548024 58.40452627 -51.5 63.25 C-54.31025857 64.65512928 -57.07914212 65.85966507 -60 67 C-60.12060791 68.29079468 -60.12060791 68.29079468 -60.24365234 69.60766602 C-60.55073337 72.87888939 -60.86047583 76.14984019 -61.171875 79.4206543 C-61.30473561 80.82159917 -61.43661182 82.22263783 -61.56738281 83.6237793 C-62.37814659 92.30207004 -63.36648942 100.92310661 -64.55371094 109.55883789 C-65.17405362 114.34206005 -65.57073752 119.1293764 -65.9375 123.9375 C-66.91776877 136.01281504 -68.43611013 147.98648238 -70 160 C-79.24 160 -88.48 160 -98 160 C-98.020625 157.195 -98.04125 154.39 -98.0625 151.5 C-98.071604 150.65373047 -98.08070801 149.80746094 -98.09008789 148.93554688 C-98.10757941 143.81222475 -97.87419653 138.73874088 -97.52514648 133.62719727 C-97.03911523 126.18780708 -96.75140546 118.75242742 -96.55444336 111.29934502 C-96.49810803 109.17474087 -96.43796691 107.0502712 -96.37695312 104.92579651 C-96.20456781 98.89980705 -96.03906164 92.87363326 -95.875 86.84741211 C-95.77344667 83.12655408 -95.66799998 79.40582179 -95.56030273 75.6851368 C-95.50132451 73.605302 -95.44689856 71.52538013 -95.39257812 69.44541931 C-95.35583984 68.17622147 -95.31910156 66.90702362 -95.28125 65.59936523 C-95.25095703 64.49068588 -95.22066406 63.38200653 -95.18945312 62.23973083 C-94.98632731 58.7661911 -94.646801 55.42011067 -94 52 C-92.05859375 50.3203125 -92.05859375 50.3203125 -89.4375 49.125 C-88.44878906 48.64417969 -87.46007812 48.16335937 -86.44140625 47.66796875 C-84.73791016 46.84232422 -84.73791016 46.84232422 -83 46 C-80.27079216 44.51564583 -77.57383761 42.97621667 -74.875 41.4375 C-73.50423472 40.6660827 -72.13314877 39.8952349 -70.76171875 39.125 C-68.52743647 37.866438 -66.30202508 36.59635185 -64.08203125 35.3125 C-63.29183594 34.85875 -62.50164062 34.405 -61.6875 33.9375 C-61.03136719 33.55464844 -60.37523437 33.17179687 -59.69921875 32.77734375 C-58 32 -58 32 -55 32 C-54.505 30.515 -54.505 30.515 -54 29 C-52.04290043 27.91844497 -50.02717912 26.94368683 -48 26 C-45.12092488 24.4185362 -42.25484588 22.81522084 -39.390625 21.20703125 C-37 20 -37 20 -35 20 C-35 19.34 -35 18.68 -35 18 C-34.2793335 17.5968457 -33.55866699 17.19369141 -32.81616211 16.77832031 C-30.11175647 15.26522633 -27.40751086 13.75184684 -24.70336914 12.23828125 C-22.96968501 11.26801257 -21.23582076 10.29806573 -19.50195312 9.328125 C-18.39658203 8.709375 -17.29121094 8.090625 -16.15234375 7.453125 C-15.08226074 6.85564453 -14.01217773 6.25816406 -12.90966797 5.64257812 C-10.54534223 4.30785891 -8.21011223 2.93787083 -5.87890625 1.546875 C-3 0 -3 0 0 0 Z " fill="#F78D1B" transform="translate(392,104)"/>
<path d="M0 0 C17.42910463 -0.02340158 34.85820433 -0.04101477 52.28732109 -0.05181217 C60.38068035 -0.05695973 68.47402983 -0.06397299 76.56738281 -0.07543945 C83.62481065 -0.08543344 90.68223139 -0.09186462 97.7396661 -0.09408849 C101.47353629 -0.09538761 105.20738619 -0.09842262 108.94124985 -0.10573006 C113.11823155 -0.11383775 117.29517841 -0.11398811 121.47216797 -0.11352539 C123.31176338 -0.1189183 123.31176338 -0.1189183 125.18852234 -0.12442017 C131.85612938 -0.1164476 138.38207004 0.16978265 145 1 C141.56333514 4.7399 138.54856995 6.81865455 134 9 C131.70333344 10.19991326 129.41154282 11.40616185 127.125 12.625 C126.47716553 12.96982422 125.82933105 13.31464844 125.16186523 13.66992188 C120.41960249 16.20763327 115.73567786 18.83774306 111.0625 21.5 C105.67973921 24.56130134 100.23619513 27.43888972 94.6875 30.1875 C94.02556641 30.52241455 93.36363281 30.8573291 92.68164062 31.20239258 C89.67599913 32.71684855 86.71220928 34.11590656 83.5859375 35.375 C80.56500673 36.68641181 78.35240421 37.68993906 76 40 C74.79934738 44.39712693 74.71094099 48.46916805 75 53 C70.79147084 52.42893115 67.26483458 51.44309604 63.375 49.75 C62.33472656 49.30398437 61.29445313 48.85796875 60.22265625 48.3984375 C59.15917969 47.93695313 58.09570312 47.47546875 57 47 C54.93952335 46.12024593 52.87706259 45.24512216 50.8125 44.375 C49.91144531 43.99085938 49.01039063 43.60671875 48.08203125 43.2109375 C44.88458186 41.95465194 41.66122701 40.86543035 38.39819336 39.79443359 C34.37102408 38.46037996 30.37559877 37.03632781 26.375 35.625 C18.83761303 32.97121902 11.2767243 30.41092453 3.67578125 27.9453125 C1 27 1 27 0 26 C-0.38398375 22.03343942 -0.47020648 18.04388047 -0.625 14.0625 C-0.6765625 12.93908203 -0.728125 11.81566406 -0.78125 10.65820312 C-0.82507813 9.58634766 -0.86890625 8.51449219 -0.9140625 7.41015625 C-0.9548291 6.42152588 -0.9955957 5.43289551 -1.03759766 4.41430664 C-1 2 -1 2 0 0 Z " fill="#2B4C7F" transform="translate(218,112)"/>
<path d="M0 0 C0.33 0 0.66 0 1 0 C1.35352422 12.28632629 0.96897677 24.14998355 -0.79223633 36.32080078 C-1.75992759 43.01846568 -2.46707286 49.69170368 -3 56.4375 C-3.95392416 68.34709862 -5.45766131 80.15203463 -7 92 C-16.24 92 -25.48 92 -35 92 C-35.08631265 80.2614797 -34.9039694 68.70317532 -34 57 C-32.515 56.505 -32.515 56.505 -31 56 C-30.33136709 54.00065649 -29.66537035 52.00043164 -29 50 C-27.04970506 46.29751094 -24.89179979 42.71928471 -22.75 39.125 C-21.49074034 36.98966888 -20.2316304 34.85424947 -18.97265625 32.71875 C-18.32184082 31.61917969 -17.67102539 30.51960938 -17.00048828 29.38671875 C-13.70769644 23.81219979 -10.44842782 18.21819641 -7.1875 12.625 C-6.58325195 11.59133301 -5.97900391 10.55766602 -5.35644531 9.49267578 C-4.79924805 8.5386084 -4.24205078 7.58454102 -3.66796875 6.6015625 C-3.17578857 5.75932129 -2.6836084 4.91708008 -2.17651367 4.04931641 C-1.41355634 2.72035524 -0.68530893 1.37061787 0 0 Z " fill="#253F6C" transform="translate(329,172)"/>
<path d="M0 0 C0 12.21 0 24.42 0 37 C-20.34997929 37.13938342 -40.66083149 36.59778999 -61 36 C-59.6875 34.5 -59.6875 34.5 -58 33 C-57.01 33 -56.02 33 -55 33 C-54.79375 32.236875 -54.5875 31.47375 -54.375 30.6875 C-52.50545015 27.03337985 -50.76434195 26.65102717 -47 25 C-44.11832256 23.42300304 -41.25495334 21.81528118 -38.390625 20.20703125 C-36 19 -36 19 -34 19 C-34 18.34 -34 17.68 -34 17 C-33.26885986 16.59160889 -32.53771973 16.18321777 -31.78442383 15.76245117 C-29.05376892 14.23670722 -26.32350786 12.71026146 -23.59350586 11.18334961 C-21.83802811 10.20177404 -20.08210323 9.22099827 -18.32617188 8.24023438 C-17.21435547 7.61826172 -16.10253906 6.99628906 -14.95703125 6.35546875 C-13.93585205 5.78465576 -12.91467285 5.21384277 -11.86254883 4.62573242 C-10.00188023 3.56899961 -8.17016285 2.45895637 -6.37768555 1.2902832 C-4 0 -4 0 0 0 Z " fill="#DB2128" transform="translate(391,105)"/>
<path d="M0 0 C0 12.21 0 24.42 0 37 C-20.34997929 37.13938342 -40.66083149 36.59778999 -61 36 C-59.6875 34.5 -59.6875 34.5 -58 33 C-57.01 33 -56.02 33 -55 33 C-54.79375 32.236875 -54.5875 31.47375 -54.375 30.6875 C-52.50545015 27.03337985 -50.76434195 26.65102717 -47 25 C-44.11832256 23.42300304 -41.25495334 21.81528118 -38.390625 20.20703125 C-36 19 -36 19 -34 19 C-34 18.34 -34 17.68 -34 17 C-33.26885986 16.59160889 -32.53771973 16.18321777 -31.78442383 15.76245117 C-29.05376892 14.23670722 -26.32350786 12.71026146 -23.59350586 11.18334961 C-21.83802811 10.20177404 -20.08210323 9.22099827 -18.32617188 8.24023438 C-17.21435547 7.61826172 -16.10253906 6.99628906 -14.95703125 6.35546875 C-13.93585205 5.78465576 -12.91467285 5.21384277 -11.86254883 4.62573242 C-10.00188023 3.56899961 -8.17016285 2.45895637 -6.37768555 1.2902832 C-4 0 -4 0 0 0 Z M-8.125 5.5 C-8.84945312 5.7784375 -9.57390625 6.056875 -10.3203125 6.34375 C-10.87460937 6.5603125 -11.42890625 6.776875 -12 7 C-12 7.99 -12 8.98 -12 10 C-12.763125 10.144375 -13.52625 10.28875 -14.3125 10.4375 C-17.08172908 10.9632594 -17.08172908 10.9632594 -20 12 C-20 12.66 -20 13.32 -20 14 C-22.64 14.33 -25.28 14.66 -28 15 C-28.33 15.99 -28.66 16.98 -29 18 C-30.796875 19.0546875 -30.796875 19.0546875 -33 20 C-34.05960937 20.52980469 -34.05960937 20.52980469 -35.140625 21.0703125 C-37.09375 22.046875 -39.046875 23.0234375 -41 24 C-41 24.66 -41 25.32 -41 26 C-41.78375 26.103125 -42.5675 26.20625 -43.375 26.3125 C-46.33045181 26.77595022 -46.33045181 26.77595022 -48 30 C-48 30.99 -48 31.98 -48 33 C-37.71196342 33.75578517 -27.42104759 34.42658978 -17.125 35.0625 C-12.13375 35.371875 -7.1425 35.68125 -2 36 C-2 25.44 -2 14.88 -2 4 C-4.36543716 4 -5.92304264 4.64762941 -8.125 5.5 Z " fill="#CD3218" transform="translate(391,105)"/>
<path d="M0 0 C0 0.66 0 1.32 0 2 C-0.99 2.33 -1.98 2.66 -3 3 C-3.37125 3.598125 -3.7425 4.19625 -4.125 4.8125 C-6.61226193 7.71430558 -9.32665636 8.60685155 -12.84375 9.97265625 C-15.05078298 10.83712558 -15.05078298 10.83712558 -16.28125 12.55859375 C-18 14 -18 14 -26 15 C-26 35.79 -26 56.58 -26 78 C-25.34 78 -24.68 78 -24 78 C-23.67 75.36 -23.34 72.72 -23 70 C-22.34 70 -21.68 70 -21 70 C-21 69.34 -21 68.68 -21 68 C-20.01 68 -19.02 68 -18 68 C-19.54385129 72.14032846 -21.51028938 75.93553053 -23.625 79.8125 C-23.94984375 80.40998047 -24.2746875 81.00746094 -24.609375 81.62304688 C-25.40379151 83.08337135 -26.20155376 84.54187491 -27 86 C-27.66 86 -28.32 86 -29 86 C-29.10624899 69.11785207 -29.08275441 52.25073689 -28.5625 35.375 C-28.54285187 34.69800049 -28.52320374 34.02100098 -28.50296021 33.32348633 C-28.10247588 19.82109042 -28.10247588 19.82109042 -27 14 C-24.98828125 12.28515625 -24.98828125 12.28515625 -22.3125 11.0625 C-16.9099293 8.4462945 -11.76283312 5.58650105 -6.59692383 2.53930664 C-2.21558171 0 -2.21558171 0 0 0 Z " fill="#E29A68" transform="translate(325,142)"/>
<path d="M0 0 C0 12.21 0 24.42 0 37 C-0.66 37 -1.32 37 -2 37 C-2 26.11 -2 15.22 -2 4 C-3.98 4.99 -5.96 5.98 -8 7 C-9.32 7 -10.64 7 -12 7 C-12 7.99 -12 8.98 -12 10 C-14.90600261 11.25664978 -16.79604584 12 -20 12 C-20 12.66 -20 13.32 -20 14 C-22.70879335 15.35439668 -25.00933268 15.06501451 -28 15 C-24.24774604 10.89147603 -19.34650138 8.54391706 -14.5625 5.8125 C-13.60794922 5.25369141 -12.65339844 4.69488281 -11.66992188 4.11914062 C-10.28836914 3.32733398 -10.28836914 3.32733398 -8.87890625 2.51953125 C-8.0391626 2.03589111 -7.19941895 1.55225098 -6.33422852 1.05395508 C-4 0 -4 0 0 0 Z " fill="#BB3438" transform="translate(391,105)"/>
<path d="M0 0 C21.12 0 42.24 0 64 0 C63.01 0.99 62.02 1.98 61 3 C60.34 3 59.68 3 59 3 C59 3.66 59 4.32 59 5 C57.33875988 5.94928007 55.67689373 6.89748306 54.01171875 7.83984375 C52.68934342 8.60245632 51.37873578 9.38591769 50.08203125 10.19140625 C48.43111859 11.20166623 46.71774352 12.10809471 45 13 C44.01 12.67 43.02 12.34 42 12 C44.297221 10.25728062 46.59866729 8.60088848 49 7 C49 6.01 49 5.02 49 4 C49.66 4 50.32 4 51 4 C51 3.34 51 2.68 51 2 C49.54176788 1.9729957 48.08339325 1.95360213 46.625 1.9375 C45.40683594 1.92009766 45.40683594 1.92009766 44.1640625 1.90234375 C41.95062858 1.85533666 41.95062858 1.85533666 40 3 C40 2.34 40 1.68 40 1 C26.8 1 13.6 1 0 1 C0 0.67 0 0.34 0 0 Z " fill="#244B7F" transform="translate(296,114)"/>
<path d="M0 0 C12.21 0 24.42 0 37 0 C37 0.33 37 0.66 37 1 C21.655 1.495 21.655 1.495 6 2 C3.21005845 7.5798831 2.57241409 8.93513336 3 14.6875 C3.061875 15.80511719 3.12375 16.92273438 3.1875 18.07421875 C3.73145886 21.17512769 3.73145886 21.17512769 6.38671875 22.8203125 C8.90189919 23.95571533 11.41289772 25.0390763 14 26 C14.33 24.68 14.66 23.36 15 22 C15.66 22.33 16.32 22.66 17 23 C16.67 24.65 16.34 26.3 16 28 C14.64397415 27.73863447 13.29025908 27.46527857 11.9375 27.1875 C11.18339844 27.03667969 10.42929688 26.88585937 9.65234375 26.73046875 C6.32677543 25.81459058 3.17048249 24.35877821 0 23 C0 15.41 0 7.82 0 0 Z " fill="#14274E" transform="translate(219,114)"/>
<path d="M0 0 C0.99 0 1.98 0 3 0 C3 12.87 3 25.74 3 39 C-12.86538462 46.93269231 -12.86538462 46.93269231 -18.0625 49.4375 C-18.79404297 49.80037109 -19.52558594 50.16324219 -20.27929688 50.53710938 C-25.65611196 53.11462935 -25.65611196 53.11462935 -29 52 C-24.71 50.02 -20.42 48.04 -16 46 C-16.33 45.34 -16.66 44.68 -17 44 C-15.02 43.505 -15.02 43.505 -13 43 C-13 41.68 -13 40.36 -13 39 C-8.05 38.67 -3.1 38.34 2 38 C2 25.79 2 13.58 2 1 C1.34 0.67 0.68 0.34 0 0 Z " fill="#F2AF8D" transform="translate(389,104)"/>
<path d="M0 0 C0.66 0.33 1.32 0.66 2 1 C-1.37607126 4.6739599 -4.39120786 7.05406554 -9 9 C-9.66 9 -10.32 9 -11 9 C-11 9.66 -11 10.32 -11 11 C-11.78375 11.226875 -12.5675 11.45375 -13.375 11.6875 C-16.21875 12.78125 -16.21875 12.78125 -17.3125 15.625 C-17.539375 16.40875 -17.76625 17.1925 -18 18 C-17.236875 17.79375 -16.47375 17.5875 -15.6875 17.375 C-13 17 -13 17 -10 19 C-19.405 19.495 -19.405 19.495 -29 20 C-28.67 19.34 -28.34 18.68 -28 18 C-27.01 18 -26.02 18 -25 18 C-24.690625 16.8553125 -24.690625 16.8553125 -24.375 15.6875 C-22.50545015 12.03337985 -20.76434195 11.65102717 -17 10 C-14.11832256 8.42300304 -11.25495334 6.81528118 -8.390625 5.20703125 C-6 4 -6 4 -4 4 C-4 3.34 -4 2.68 -4 2 C-2.125 0.9375 -2.125 0.9375 0 0 Z " fill="#C73F42" transform="translate(361,120)"/>
<path d="M0 0 C0 0.66 0 1.32 0 2 C-0.99 2.33 -1.98 2.66 -3 3 C-3.37125 3.598125 -3.7425 4.19625 -4.125 4.8125 C-6.61226193 7.71430558 -9.32665636 8.60685155 -12.84375 9.97265625 C-15.05078298 10.83712558 -15.05078298 10.83712558 -16.28125 12.55859375 C-18 14 -18 14 -26 15 C-26.33 26.55 -26.66 38.1 -27 50 C-27.33 50 -27.66 50 -28 50 C-28.02489435 45.99813807 -28.04295127 41.99630672 -28.05493164 37.99438477 C-28.05993113 36.63565281 -28.06673291 35.27692615 -28.07543945 33.91821289 C-28.08769842 31.95461415 -28.09273487 29.99097459 -28.09765625 28.02734375 C-28.10289307 26.84906006 -28.10812988 25.67077637 -28.11352539 24.45678711 C-27.99618707 20.8838984 -27.68639006 17.50929766 -27 14 C-24.98828125 12.28515625 -24.98828125 12.28515625 -22.3125 11.0625 C-16.9099293 8.4462945 -11.76283312 5.58650105 -6.59692383 2.53930664 C-2.21558171 0 -2.21558171 0 0 0 Z " fill="#F0BB88" transform="translate(325,142)"/>
<path d="M0 0 C0.66 0.66 1.32 1.32 2 2 C1.30132812 2.41765625 0.60265625 2.8353125 -0.1171875 3.265625 C-2.08809921 4.45137676 -4.0513525 5.649927 -6.0078125 6.859375 C-7.03648437 7.48328125 -8.06515625 8.1071875 -9.125 8.75 C-10.15882813 9.38421875 -11.19265625 10.0184375 -12.2578125 10.671875 C-15 12 -15 12 -18 11 C-16.35 10.01 -14.7 9.02 -13 8 C-13.99 7.34 -14.98 6.68 -16 6 C-16 5.34 -16 4.68 -16 4 C-15.01 4 -14.02 4 -13 4 C-12.67 3.34 -12.34 2.68 -12 2 C-10.68 2.33 -9.36 2.66 -8 3 C-8 2.34 -8 1.68 -8 1 C-5.23749964 -0.38125018 -3.05268901 -0.19079306 0 0 Z " fill="#7790B1" transform="translate(336,126)"/>
<path d="M0 0 C0 0.66 0 1.32 0 2 C-1.2065625 2.4021875 -1.2065625 2.4021875 -2.4375 2.8125 C-3.283125 3.204375 -4.12875 3.59625 -5 4 C-5.33 4.99 -5.66 5.98 -6 7 C-7.32 7 -8.64 7 -10 7 C-10 7.99 -10 8.98 -10 10 C-12.90600261 11.25664978 -14.79604584 12 -18 12 C-18 12.66 -18 13.32 -18 14 C-20.70879335 15.35439668 -23.00933268 15.06501451 -26 15 C-23.65825879 12.42651653 -21.19697334 10.80587715 -18.18359375 9.08203125 C-17.25482422 8.55029297 -16.32605469 8.01855469 -15.36914062 7.47070312 C-14.40169922 6.92349609 -13.43425781 6.37628906 -12.4375 5.8125 C-10.98053711 4.97428711 -10.98053711 4.97428711 -9.49414062 4.11914062 C-2.25672505 0 -2.25672505 0 0 0 Z " fill="#DC7273" transform="translate(389,105)"/>
<path d="M0 0 C0.33 0 0.66 0 1 0 C1 3.96 1 7.92 1 12 C-5.22987798 11.49487476 -10.45474233 8.67395877 -16 6 C-13.20091867 3.20091867 -10.86918237 3.27637017 -7 3 C-6.34 3.66 -5.68 4.32 -5 5 C-5.99 6.485 -5.99 6.485 -7 8 C-3.96707046 6.85916824 -3.96707046 6.85916824 -1 5 C-0.03093173 2.41585574 -0.03093173 2.41585574 0 0 Z " fill="#192C4F" transform="translate(290,151)"/>
<path d="M0 0 C-0.845625 0.38671875 -1.69125 0.7734375 -2.5625 1.171875 C-10.07817805 4.61301935 -10.07817805 4.61301935 -17.5 8.25 C-20.30497823 9.65248911 -23.06698057 10.90011771 -26 12 C-26.33 14.31 -26.66 16.62 -27 19 C-27.33 19 -27.66 19 -28 19 C-29.32642089 12.7296467 -29.32642089 12.7296467 -27.9375 9.625 C-25.3867751 7.48568235 -23.26738025 7.2904338 -20 7 C-20 6.34 -20 5.68 -20 5 C-19.360625 4.87625 -18.72125 4.7525 -18.0625 4.625 C-17.381875 4.41875 -16.70125 4.2125 -16 4 C-15.67 3.34 -15.34 2.68 -15 2 C-12.3828125 1.11328125 -12.3828125 1.11328125 -9.125 0.3125 C-8.05507813 0.04050781 -6.98515625 -0.23148438 -5.8828125 -0.51171875 C-3 -1 -3 -1 0 0 Z " fill="#E1C580" transform="translate(358,159)"/>
<path d="M0 0 C1.53445094 3.06890187 0.54984289 5.70094266 0 9 C-0.99 9 -1.98 9 -3 9 C-3 10.32 -3 11.64 -3 13 C-3.66 13 -4.32 13 -5 13 C-5 13.99 -5 14.98 -5 16 C-5.66 16 -6.32 16 -7 16 C-7 17.32 -7 18.64 -7 20 C-8.32 20.33 -9.64 20.66 -11 21 C-11.33 22.65 -11.66 24.3 -12 26 C-12.99 26.33 -13.98 26.66 -15 27 C-13.72423278 23.641121 -12.2775787 20.56378467 -10.46875 17.4609375 C-9.98792969 16.63335937 -9.50710938 15.80578125 -9.01171875 14.953125 C-8.51285156 14.10234375 -8.01398438 13.2515625 -7.5 12.375 C-7.00113281 11.51648438 -6.50226563 10.65796875 -5.98828125 9.7734375 C-4.05724773 6.46013602 -2.12794105 3.19191157 0 0 Z " fill="#363A49" transform="translate(320,188)"/>
<path d="M0 0 C-0.99 0.66 -1.98 1.32 -3 2 C-4.15317663 4.97903963 -4.0448029 5.86559131 -3 9 C-2.95833998 11.3329614 -2.95833998 13.6670386 -3 16 C-3 16.99 -3 17.98 -3 19 C-3.33 19.33 -3.66 19.66 -4 20 C-4.15582303 21.34015221 -4.25044142 22.68758903 -4.31640625 24.03515625 C-4.37924805 25.24848633 -4.37924805 25.24848633 -4.44335938 26.48632812 C-4.48267578 27.33646484 -4.52199219 28.18660156 -4.5625 29.0625 C-4.60568359 29.91650391 -4.64886719 30.77050781 -4.69335938 31.65039062 C-4.79976702 33.76672037 -4.90041731 35.88333813 -5 38 C-5.33 38 -5.66 38 -6 38 C-6 25.46 -6 12.92 -6 0 C-2 -1 -2 -1 0 0 Z " fill="#EF7320" transform="translate(305,157)"/>
<path d="M0 0 C2.25028329 0.14139481 4.50022206 0.28828003 6.75 0.4375 C8.62945312 0.55931641 8.62945312 0.55931641 10.546875 0.68359375 C13.18317553 0.92515522 15.48037294 1.24283934 18 2 C18 2.66 18 3.32 18 4 C18.66 4.33 19.32 4.66 20 5 C20.8971875 5.7115625 20.8971875 5.7115625 21.8125 6.4375 C24.12320195 8.0880014 26.33830488 9.03883232 29 10 C27 11 27 11 23.69140625 9.92578125 C22.31222236 9.39545541 20.9360695 8.85720222 19.5625 8.3125 C18.11606465 7.75344229 16.669449 7.19485087 15.22265625 6.63671875 C14.50867676 6.35876465 13.79469727 6.08081055 13.05908203 5.79443359 C10.21997155 4.69904997 7.36208735 3.6586352 4.5 2.625 C3.6234375 2.30789062 2.746875 1.99078125 1.84375 1.6640625 C0.93109375 1.33535156 0.93109375 1.33535156 0 1 C0 0.67 0 0.34 0 0 Z " fill="#73859E" transform="translate(256,151)"/>
<path d="M0 0 C-1.423125 0.12375 -1.423125 0.12375 -2.875 0.25 C-6.10461791 0.65074923 -6.10461791 0.65074923 -7.375 3.0625 C-7.58125 3.701875 -7.7875 4.34125 -8 5 C-8.66 5 -9.32 5 -10 5 C-10.33 6.32 -10.66 7.64 -11 9 C-11.66 9 -12.32 9 -13 9 C-13.12375 9.5775 -13.2475 10.155 -13.375 10.75 C-14.00648824 13.02335767 -14.88858191 14.9253529 -16 17 C-16.66 17 -17.32 17 -18 17 C-17.855625 16.484375 -17.71125 15.96875 -17.5625 15.4375 C-16.90240964 12.83456578 -16.90240964 12.83456578 -16.6875 9.4375 C-16 6 -16 6 -14.0625 4.0625 C-12 3 -12 3 -10 3 C-9.67 2.34 -9.34 1.68 -9 1 C-5.62083804 -0.73524533 -3.60583914 -1.33549598 0 0 Z " fill="#F3A61A" transform="translate(338,166)"/>
<path d="M0 0 C0.33 0 0.66 0 1 0 C1.68425895 11.78445963 -0.33246267 23.36863143 -2 35 C-2.33 35 -2.66 35 -3 35 C-3.33 32.03 -3.66 29.06 -4 26 C-4.99 25.67 -5.98 25.34 -7 25 C-5.625 23.5 -5.625 23.5 -4 22 C-3.34 22 -2.68 22 -2 22 C-2.09539062 21.40832031 -2.19078125 20.81664062 -2.2890625 20.20703125 C-2.96542709 15.38596738 -3.0724984 12.49041319 -1 8 C-0.53946327 5.33689632 -0.27371707 2.69155117 0 0 Z " fill="#8093B0" transform="translate(329,182)"/>
<path d="M0 0 C0.33 0 0.66 0 1 0 C1 3.3 1 6.6 1 10 C-7.25 10 -15.5 10 -24 10 C-23.67 9.34 -23.34 8.68 -23 8 C-15.74 8 -8.48 8 -1 8 C-0.67 5.36 -0.34 2.72 0 0 Z " fill="#101E3C" transform="translate(320,253)"/>
<path d="M0 0 C0 0.66 0 1.32 0 2 C-1.65 2.66 -3.3 3.32 -5 4 C-0.71 4.66 3.58 5.32 8 6 C8 6.33 8 6.66 8 7 C3.00359074 7.86894074 -1.60021948 8.01353156 -6.66796875 7.7421875 C-9.55261916 8.06109358 -10.78787064 9.1905066 -13 11 C-13.66 11 -14.32 11 -15 11 C-14.67 10.01 -14.34 9.02 -14 8 C-13.01 8 -12.02 8 -11 8 C-11 7.01 -11 6.02 -11 5 C-9.54462432 4.16151196 -8.08559627 3.32936066 -6.625 2.5 C-5.40683594 1.80390625 -5.40683594 1.80390625 -4.1640625 1.09375 C-2 0 -2 0 0 0 Z " fill="#EF9D52" transform="translate(336,136)"/>
<path d="M0 0 C1 3 1 3 0.05957031 5.22070312 C-0.67374512 6.48817383 -0.67374512 6.48817383 -1.421875 7.78125 C-1.95296875 8.70550781 -2.4840625 9.62976563 -3.03125 10.58203125 C-3.5984375 11.54496094 -4.165625 12.50789062 -4.75 13.5 C-5.30171875 14.46292969 -5.8534375 15.42585937 -6.421875 16.41796875 C-10.94070679 24.20643605 -10.94070679 24.20643605 -14 27 C-14 25.02 -14 23.04 -14 21 C-13.34 21 -12.68 21 -12 21 C-11.896875 20.401875 -11.79375 19.80375 -11.6875 19.1875 C-11 17 -11 17 -9.625 15.6875 C-7.60701001 13.59189501 -6.57015141 11.42977456 -5.3125 8.8125 C-4.87550781 7.91144531 -4.43851562 7.01039063 -3.98828125 6.08203125 C-3.66214844 5.39496094 -3.33601563 4.70789063 -3 4 C-2.34 4 -1.68 4 -1 4 C-0.67 2.68 -0.34 1.36 0 0 Z " fill="#D29744" transform="translate(328,171)"/>
<path d="M0 0 C0.66 0.33 1.32 0.66 2 1 C-1.37607126 4.6739599 -4.39120786 7.05406554 -9 9 C-9.66 9 -10.32 9 -11 9 C-11 9.66 -11 10.32 -11 11 C-13.31 11.33 -15.62 11.66 -18 12 C-15.80106503 8.70159754 -14.49141855 8.00238717 -11 6.3125 C-9.6696875 5.65701172 -9.6696875 5.65701172 -8.3125 4.98828125 C-6 4 -6 4 -4 4 C-4 3.34 -4 2.68 -4 2 C-2.125 0.9375 -2.125 0.9375 0 0 Z " fill="#E2878A" transform="translate(361,120)"/>
<path d="M0 0 C0.66 0.33 1.32 0.66 2 1 C2 1.99 2 2.98 2 4 C2.99 4.33 3.98 4.66 5 5 C3.33779419 6.00739746 1.66979326 7.00522955 0 8 C-0.58910156 8.37125 -1.17820312 8.7425 -1.78515625 9.125 C-3.47861091 10.1604882 -5.23785209 11.08629368 -7 12 C-7.99 11.67 -8.98 11.34 -10 11 C-7.702779 9.25728062 -5.40133271 7.60088848 -3 6 C-3 5.01 -3 4.02 -3 3 C-2.34 3 -1.68 3 -1 3 C-0.67 2.01 -0.34 1.02 0 0 Z " fill="#6D88B1" transform="translate(348,115)"/>
<path d="M0 0 C-0.48082031 0.35707031 -0.96164062 0.71414062 -1.45703125 1.08203125 C-3.68424838 3.85054672 -3.51394011 6.18159023 -3.6875 9.6875 C-3.75324219 10.86699219 -3.81898438 12.04648438 -3.88671875 13.26171875 C-3.92410156 14.16535156 -3.96148437 15.06898438 -4 16 C-6.9375 15.625 -6.9375 15.625 -10 15 C-10.33 14.34 -10.66 13.68 -11 13 C-8.525 13.495 -8.525 13.495 -6 14 C-6 9.38 -6 4.76 -6 0 C-3.50907189 -1.24546405 -2.58919267 -0.7767578 0 0 Z " fill="#7F8DA3" transform="translate(297,149)"/>
<path d="M0 0 C0.66 0 1.32 0 2 0 C2.08069658 2.95887459 2.14034665 5.9155659 2.1875 8.875 C2.22520508 10.13763672 2.22520508 10.13763672 2.26367188 11.42578125 C2.27333984 12.23144531 2.28300781 13.03710938 2.29296875 13.8671875 C2.3086792 14.61081543 2.32438965 15.35444336 2.34057617 16.12060547 C2.17199097 17.05090576 2.17199097 17.05090576 2 18 C1.01 18.66 0.02 19.32 -1 20 C-1.11381955 13.23405981 -0.88021369 6.71162938 0 0 Z " fill="#1D2C4D" transform="translate(296,243)"/>
<path d="M0 0 C-2.10084209 1.00696568 -4.20579489 2.0053589 -6.3125 3 C-7.48425781 3.556875 -8.65601563 4.11375 -9.86328125 4.6875 C-13 6 -13 6 -16 6 C-15.67 4.68 -15.34 3.36 -15 2 C-13.06524329 1.46906676 -11.12706845 0.95057683 -9.1875 0.4375 C-8.10855469 0.14746094 -7.02960938 -0.14257812 -5.91796875 -0.44140625 C-3 -1 -3 -1 0 0 Z " fill="#F4CC84" transform="translate(358,159)"/>
<path d="M0 0 C0 0.66 0 1.32 0 2 C-1.60517097 1.91266424 -3.20921662 1.80447776 -4.8125 1.6875 C-6.15248047 1.60048828 -6.15248047 1.60048828 -7.51953125 1.51171875 C-10.30604 0.93686419 -11.24135754 0.1793144 -13 -2 C-7.99924211 -3.47081114 -4.56282488 -2.28141244 0 0 Z " fill="#17325F" transform="translate(266,150)"/>
<path d="M0 0 C0.515625 0.37125 1.03125 0.7425 1.5625 1.125 C0.5725 2.445 -0.4175 3.765 -1.4375 5.125 C-4.4094385 4.00048273 -6.77190687 2.90206209 -9.4375 1.125 C-3.0375 -1.09038462 -3.0375 -1.09038462 0 0 Z " fill="#19335D" transform="translate(283.4375,154.875)"/>
<path d="M0 0 C1.24546405 2.49092811 0.7767578 3.41080733 0 6 C-1.32 6.33 -2.64 6.66 -4 7 C-4.33 8.65 -4.66 10.3 -5 12 C-5.99 12.33 -6.98 12.66 -8 13 C-4 2 -4 2 0 0 Z " fill="#413842" transform="translate(313,202)"/>
<path d="M0 0 C0 0.66 0 1.32 0 2 C-1.2065625 2.4021875 -1.2065625 2.4021875 -2.4375 2.8125 C-3.283125 3.204375 -4.12875 3.59625 -5 4 C-5.33 4.99 -5.66 5.98 -6 7 C-7.98 7 -9.96 7 -12 7 C-9.20232475 3.70861735 -4.40323273 0 0 0 Z " fill="#E1898C" transform="translate(389,105)"/>
<path d="M0 0 C4.455 0.99 4.455 0.99 9 2 C6.42357133 4.11635213 4.37494032 5.67339287 1 6 C0.01 5.34 -0.98 4.68 -2 4 C-2 3.34 -2 2.68 -2 2 C-1.34 2 -0.68 2 0 2 C0 1.34 0 0.68 0 0 Z " fill="#526990" transform="translate(309,136)"/>
<path d="M0 0 C0.99 0.33 1.98 0.66 3 1 C1.35 1.66 -0.3 2.32 -2 3 C-2 3.66 -2 4.32 -2 5 C-3.65 5 -5.3 5 -7 5 C-7.33 3.68 -7.66 2.36 -8 1 C-7.05125 1.020625 -6.1025 1.04125 -5.125 1.0625 C-2.09333717 1.22551826 -2.09333717 1.22551826 0 0 Z " fill="#3A598C" transform="translate(357,114)"/>
<path d="M0 0 C0.66 1.65 1.32 3.3 2 5 C0.68 5 -0.64 5 -2 5 C-2.66 6.32 -3.32 7.64 -4 9 C-4.33 9 -4.66 9 -5 9 C-5.36666667 3.5 -5.36666667 3.5 -3.625 1.125 C-2 0 -2 0 0 0 Z " fill="#193C6E" transform="translate(325,187)"/>
<path d="M0 0 C0.9435441 2.53899138 1.16906025 3.60909275 0.07421875 6.140625 C-0.61220703 7.18476563 -0.61220703 7.18476563 -1.3125 8.25 C-1.76238281 8.95640625 -2.21226562 9.6628125 -2.67578125 10.390625 C-3.11277344 10.92171875 -3.54976563 11.4528125 -4 12 C-4.66 12 -5.32 12 -6 12 C-4.68139111 7.38486888 -2.78644563 3.90102388 0 0 Z " fill="#3F3A3B" transform="translate(327,176)"/>
<path d="M0 0 C2.97851562 0.43945312 2.97851562 0.43945312 5.95703125 0.87890625 C8.2025342 1.13904799 8.2025342 1.13904799 11 0 C13 2 13 2 14 5 C12.22739369 4.54857225 10.4569632 4.08859477 8.6875 3.625 C7.20830078 3.24214844 7.20830078 3.24214844 5.69921875 2.8515625 C3 2 3 2 0 0 Z " fill="#8393AB" transform="translate(242,146)"/>
<path d="M0 0 C0.99 0 1.98 0 3 0 C1.55049545 3.7910119 -0.15172566 7.3874638 -2 11 C-3.15941038 7.52176885 -2.70820884 5.54104422 -2 2 C-1.34 2 -0.68 2 0 2 C0 1.34 0 0.68 0 0 Z " fill="#D5783B" transform="translate(304,210)"/>
<path d="M0 0 C-1.76505435 0.86604534 -3.53728074 1.71748642 -5.3125 2.5625 C-6.79169922 3.27599609 -6.79169922 3.27599609 -8.30078125 4.00390625 C-11 5 -11 5 -14 4 C-13.34 4 -12.68 4 -12 4 C-12 3.01 -12 2.02 -12 1 C-10.56496445 0.63597631 -9.12683494 0.28413409 -7.6875 -0.0625 C-6.88699219 -0.25972656 -6.08648437 -0.45695313 -5.26171875 -0.66015625 C-3 -1 -3 -1 0 0 Z " fill="#F0BD98" transform="translate(391,144)"/>
<path d="M0 0 C1.65 0.33 3.3 0.66 5 1 C2.47043472 4.0916909 -0.22454612 4.90931332 -4 6 C-4 5.01 -4 4.02 -4 3 C-2.68 2.67 -1.36 2.34 0 2 C0 1.34 0 0.68 0 0 Z " fill="#7084A0" transform="translate(305,141)"/>
<path d="M0 0 C0 3.44360632 -0.79591532 4.74795392 -2.5 7.6875 C-2.9640625 8.49574219 -3.428125 9.30398437 -3.90625 10.13671875 C-4.2671875 10.75160156 -4.628125 11.36648437 -5 12 C-5.33 11.01 -5.66 10.02 -6 9 C-5.34 8.01 -4.68 7.02 -4 6 C-3.61500109 4.34450469 -3.27206865 2.6777567 -3 1 C-2.01 0.67 -1.02 0.34 0 0 Z " fill="#D67F3D" transform="translate(313,198)"/>
<path d="M0 0 C-0.99 0.66 -1.98 1.32 -3 2 C-3.78988145 3.95385067 -3.78988145 3.95385067 -4.1875 6.125 C-4.455625 7.40375 -4.72375 8.6825 -5 10 C-5.33 10 -5.66 10 -6 10 C-6 6.7 -6 3.4 -6 0 C-2 -1 -2 -1 0 0 Z " fill="#E6752A" transform="translate(305,157)"/>
<path d="M0 0 C-0.99 0.33 -1.98 0.66 -3 1 C-3 1.66 -3 2.32 -3 3 C-5.31 3.33 -7.62 3.66 -10 4 C-7.19291889 -0.21062166 -4.92322234 -1.75829369 0 0 Z " fill="#DA7D81" transform="translate(353,128)"/>
<path d="M0 0 C1.32 0.33 2.64 0.66 4 1 C3.67 1.99 3.34 2.98 3 4 C1.02 4.33 -0.96 4.66 -3 5 C-3 4.01 -3 3.02 -3 2 C-2.01 2 -1.02 2 0 2 C0 1.34 0 0.68 0 0 Z " fill="#254D8B" transform="translate(323,128)"/>
<path d="M0 0 C0.33 0 0.66 0 1 0 C1.36256858 1.4562672 1.71479793 2.91511185 2.0625 4.375 C2.35833984 5.59316406 2.35833984 5.59316406 2.66015625 6.8359375 C3 9 3 9 2 11 C1.34 11 0.68 11 0 11 C0 7.37 0 3.74 0 0 Z " fill="#F4751D" transform="translate(299,209)"/>
<path d="M0 0 C0.6875 1.75 0.6875 1.75 1 4 C-0.4375 6.25 -0.4375 6.25 -2 8 C-2.66 7.67 -3.32 7.34 -4 7 C-2.68 4.69 -1.36 2.38 0 0 Z " fill="#343041" transform="translate(301,221)"/>
<path d="M0 0 C0.66 0 1.32 0 2 0 C2.33 2.31 2.66 4.62 3 7 C1.68 7 0.36 7 -1 7 C-0.67 4.69 -0.34 2.38 0 0 Z " fill="#173F76" transform="translate(315,201)"/>
<path d="M0 0 C0.33 0 0.66 0 1 0 C1.36923077 5.53846154 1.36923077 5.53846154 -0.5 7.875 C-1.2425 8.431875 -1.2425 8.431875 -2 9 C-2 7.02 -2 5.04 -2 3 C-1.34 3 -0.68 3 0 3 C0 2.01 0 1.02 0 0 Z " fill="#D98539" transform="translate(316,189)"/>
<path d="M0 0 C1.8125 1.4375 1.8125 1.4375 3 3 C0.6875 3.6875 0.6875 3.6875 -2 4 C-3.8125 2.5625 -3.8125 2.5625 -5 1 C-2.6875 0.3125 -2.6875 0.3125 0 0 Z " fill="#1F395C" transform="translate(258,147)"/>
<path d="M0 0 C0.66 0.33 1.32 0.66 2 1 C2 1.99 2 2.98 2 4 C2.99 4.33 3.98 4.66 5 5 C4.34 5.66 3.68 6.32 3 7 C2.01 6.67 1.02 6.34 0 6 C-0.38218767 4.34385343 -0.71395102 2.67542976 -1 1 C-0.67 0.67 -0.34 0.34 0 0 Z " fill="#7591B8" transform="translate(348,115)"/>
</svg>
